<svg width="20" height="20" viewBox="0 0 20 20" fill="none" xmlns="http://www.w3.org/2000/svg">
<path fill-rule="evenodd" clip-rule="evenodd" d="M10.0004 18.3322C14.6024 18.3322 18.3331 14.6015 18.3331 9.99944C18.3331 5.39737 14.6024 1.66666 10.0004 1.66666C5.39829 1.66666 1.66757 5.39737 1.66757 9.99944C1.66757 14.6015 5.39829 18.3322 10.0004 18.3322ZM10.4188 4.55846C10.7014 4.55846 10.9278 4.79248 10.9185 5.07492L10.7134 11.3045C10.7081 11.4662 10.5754 11.5946 10.4136 11.5946H9.5796C9.41776 11.5946 9.28509 11.4662 9.27976 11.3045L9.07463 5.07492C9.06533 4.79248 9.29177 4.55846 9.57436 4.55846H10.4188ZM9.13076 13.8049C9.13076 13.4735 9.39939 13.2049 9.73076 13.2049H10.2624C10.5937 13.2049 10.8624 13.4735 10.8624 13.8049V14.2511C10.8624 14.5825 10.5937 14.8511 10.2624 14.8511H9.73076C9.39939 14.8511 9.13076 14.5825 9.13076 14.2511V13.8049Z" fill="#FF9000"/>
</svg>
